Coordinates
version=1
nRows=5
nColumns=46
inDegrees=yes

Units are S.I. units (second, meters, Newtons, ...)
Angles are in degrees.

endheader
time	pelvis_tilt	pelvis_list	pelvis_rotation	pelvis_tx	pelvis_ty	pelvis_tz	bb_angle	bb_tx	bb_ty	bb_tz	hip_flexion_r	hip_adduction_r	hip_rotation_r	knee_angle_r	knee_angle_r_beta	ankle_angle_r	subtalar_angle_r	mtp_angle_r	crank_angle_r	hip_flexion_l	hip_adduction_l	hip_rotation_l	knee_angle_l	knee_angle_l_beta	ankle_angle_l	subtalar_angle_l	mtp_angle_l	crank_angle_l	lumbar_extension	lumbar_bending	lumbar_rotation	arm_flex_r	arm_add_r	arm_rot_r	elbow_flex_r	pro_sup_r	wrist_flex_r	wrist_dev_r	arm_flex_l	arm_add_l	arm_rot_l	elbow_flex_l	pro_sup_l	wrist_flex_l	wrist_dev_l
      0.00000000	    -18.00303779	      5.31268859	      3.84731300	      0.12955217	      1.10926409	     -0.29025779	      0.00000000	      0.50000000	      0.00000000	      0.25000000	     43.50808712	    -10.93055635	      0.19560055	     47.48401710	      0.82875244	      9.78690236	     -5.58977900	      0.00000000	      0.00000000	     91.73631646	     -6.48254144	     -4.08868801	    105.01222601	      1.83280910	     20.03826758	      1.60105954	      0.00000000	      0.00000000	    -42.14667272	     -1.86102059	    -10.27341443	     84.01921738	      0.64101687	     38.80715609	     49.15962790	     30.36748890	      0.00000000	      0.00000000	     74.67771322	    -16.52026399	     68.60603428	     17.60400328	     29.21326154	      0.00000000	      0.00000000
      0.00500000	    -17.95790286	      5.32732492	      3.84676462	      0.12950959	      1.10930726	     -0.29019597	      0.00000000	      0.50000000	      0.00000000	      0.25000000	     43.46523335	    -10.93633876	      0.21355172	     47.48230572	      0.82872257	      9.76528589	     -5.55898581	      0.00000000	      0.00000000	     91.69256337	     -6.46088567	     -4.08046702	    105.02872008	      1.83309697	     20.06332564	      1.58323066	      0.00000000	      0.00000000	    -42.22537144	     -1.96448815	    -10.14247208	     83.85221157	      0.31221870	     38.98138080	     49.09967174	     32.89972843	      0.00000000	      0.00000000	     75.57402617	    -16.94847879	     74.16757236	     16.56362230	     33.43053506	      0.00000000	      0.00000000
      0.01000000	    -17.94845739	      5.31924375	      3.85352615	      0.12952571	      1.10931779	     -0.29021413	      0.00000000	      0.50000000	      0.00000000	      0.25000000	     43.45103632	    -10.93968535	      0.18456789	     47.46435459	      0.82840926	      9.74123889	     -5.55472487	      0.00000000	      0.00000000	     91.69171582	     -6.43684626	     -4.05905401	    105.04875537	      1.83344666	     20.05740492	      1.55462659	      0.00000000	      0.00000000	    -42.22274776	     -1.92733030	    -10.20335608	     83.97191820	      0.42984897	     39.10175476	     48.71929440	     33.45229814	      0.00000000	      0.00000000	     75.31412509	    -16.80018829	     72.23087022	     16.53247871	     33.82259320	      0.00000000	      0.00000000
      0.01500000	    -17.82968554	      5.24011251	      3.86670509	      0.12972857	      1.10962637	     -0.29012325	      0.00000000	      0.50000000	      0.00000000	      0.25000000	     43.20868710	    -10.85727095	      0.10629023	     47.30735786	      0.82566916	      9.75269835	     -5.59210955	      0.00000000	      0.00000000	     91.56207116	     -6.45992735	     -3.96432103	    105.06947070	      1.83380821	     20.27159220	      1.94207503	      0.00000000	      0.00000000	    -42.37496878	     -1.78890425	    -10.40419747	     83.93139840	      0.76691473	     38.79106450	     48.54824931	     34.53994259	      0.00000000	      0.00000000	     74.82608995	    -16.95440516	     68.31992984	     17.14333601	     34.57453180	      0.00000000	      0.00000000
      0.02000000	    -18.03302800	      5.21165610	      3.85782187	      0.12955574	      1.10915976	     -0.29023623	      0.00000000	      0.50000000	      0.00000000	      0.25000000	     43.49345645	    -10.81997146	      0.15884654	     47.38371843	      0.82700190	      9.70653623	     -5.59964484	      0.00000000	      0.00000000	     91.83473484	     -6.41374642	     -3.93822227	    105.09534244	      1.83425975	     20.01265897	      1.45663006	      0.00000000	      0.00000000	    -42.07640721	     -1.78124364	    -10.32903763	     84.21292137	      0.79097957	     39.19989155	     47.52428980	     36.12415503	      0.00000000	      0.00000000	     74.38889154	    -16.01629049	     64.41578826	     16.18554647	     35.86442180	      0.00000000	      0.00000000
